<?xml version="1.0" encoding="UTF-8"?>
<svg width="229px" height="54px" viewBox="0 0 229 54" version="1.1" xmlns="http://www.w3.org/2000/svg" xmlns:xlink="http://www.w3.org/1999/xlink">
    <title>logo-mastercard</title>
    <g id="logo-mastercard" stroke="none" stroke-width="1" fill="none" fill-rule="evenodd">
        <g id="Group">
            <path d="M80.1859635,53.4021429 L78.4988372,53.4021429 L78.4988372,34.0416777 L80.1859635,34.0416777 L80.1859635,53.4021429 Z M93.0468439,34.0416777 C94.52745,34.0193677 96.0011732,34.247533 97.4057143,34.7165282 C98.6350881,35.1230235 99.7656785,35.7825346 100.724651,36.6525748 C101.624452,37.5043037 102.326817,38.5427468 102.782392,39.6949336 C103.760629,42.2847564 103.760629,45.1424695 102.782392,47.7322924 C102.319455,48.8890377 101.607462,49.9296434 100.696993,50.7801827 C99.7381181,51.6503557 98.607498,52.309884 97.3780565,52.7162292 C95.9752722,53.1846084 94.5034713,53.4127656 93.0247176,53.3910797 L85.9775083,53.3910797 L85.9775083,34.0306146 L93.0468439,34.0416777 Z M87.6701661,35.6458306 L87.6701661,51.79799 L93.0468439,51.79799 C94.3138351,51.8271081 95.57652,51.6400437 96.7806478,51.2448339 C97.7925515,50.9011463 98.7201122,50.3468722 99.5021761,49.6185548 C100.240926,48.9070273 100.808363,48.0369566 101.161645,47.0740365 C101.910749,44.924816 101.910749,42.5853833 101.161645,40.4361628 C100.807038,39.472296 100.23984,38.6007013 99.5021761,37.886113 C98.7224849,37.1546429 97.7942039,36.5999384 96.7806478,36.2598339 C95.5760031,35.866815 94.3136945,35.6798063 93.0468439,35.7066777 L87.6701661,35.6458306 Z M124.233787,33.8204153 C125.043919,33.818215 125.851512,33.9110418 126.640017,34.0969934 C127.395637,34.2747231 128.127306,34.5421349 128.819452,34.8935382 C129.484481,35.2296077 130.103556,35.6497609 130.661462,36.1436711 C131.206261,36.6272677 131.679357,37.1860422 132.066478,37.8031395 L130.65593,38.743505 C130.324008,38.2356965 129.925922,37.7743638 129.472176,37.3716777 C129.014951,36.9664992 128.509629,36.6190908 127.967591,36.3372757 C127.406488,36.0467687 126.812073,35.8257209 126.197492,35.6790199 C125.556017,35.5263429 124.89871,35.4502141 124.239319,35.4522259 C123.139641,35.4434117 122.048535,35.6462335 121.025482,36.0496346 C120.061246,36.4228112 119.182523,36.9873015 118.442243,37.709103 C117.698229,38.4552971 117.111381,39.343093 116.716395,40.32 C115.877187,42.491232 115.877187,44.8972729 116.716395,47.068505 C117.112237,48.0479229 117.701041,48.9377127 118.447774,49.6849336 C119.188054,50.4067351 120.066777,50.9712253 121.031013,51.344402 C122.054066,51.747803 123.145172,51.9506248 124.24485,51.9418106 C124.900254,51.9435005 125.553647,51.8692513 126.19196,51.7205482 C126.804892,51.5794304 127.397706,51.362003 127.956528,51.0733555 C128.500704,50.7922701 129.007942,50.4448209 129.466645,50.0389535 C129.922863,49.6345388 130.321193,49.1692007 130.650399,48.6560631 L132.033289,49.6683389 C131.631812,50.2828646 131.149986,50.8409635 130.600615,51.3278073 C130.045028,51.8107443 129.431914,52.2232029 128.775199,52.555814 C128.092154,52.9019358 127.369607,53.163836 126.623422,53.3357641 C124.520371,53.8143943 122.322194,53.6525653 120.31191,52.871113 C119.137214,52.4072845 118.067093,51.7133047 117.164452,50.8299668 C116.266963,49.9395458 115.559409,48.8763332 115.084585,47.7046346 C114.080012,45.1330474 114.080012,42.2775839 115.084585,39.7059967 C115.558478,38.5321796 116.266103,37.4669794 117.164452,36.5751329 C118.067093,35.691795 119.137214,34.9978151 120.31191,34.5339867 C121.559457,34.0469604 122.889107,33.8046936 124.228256,33.8204153 L124.233787,33.8204153 Z M137.802708,42.6709136 C138.050257,42.2603888 138.355804,41.8877713 138.709884,41.5646013 C139.040961,41.257927 139.413347,40.999119 139.816196,40.7957143 C140.221007,40.5977329 140.648161,40.4491577 141.088455,40.3531894 C141.524513,40.2576018 141.969618,40.209382 142.41603,40.2093688 C143.169171,40.2017214 143.917892,40.3252605 144.628654,40.5744518 C145.272733,40.8011182 145.863767,41.1568679 146.365565,41.6199169 C146.851897,42.0849741 147.229645,42.6515949 147.471877,43.2793854 C147.742297,43.9736873 147.875667,44.7137973 147.864618,45.4588206 L147.864618,53.4353322 L146.288123,53.4353322 L146.288123,45.9068771 C146.296525,45.3054607 146.20301,44.7069646 146.011545,44.1367774 C145.841481,43.636919 145.561762,43.1814303 145.192874,42.8036711 C144.822353,42.4325644 144.374804,42.1474174 143.881894,41.9684053 C143.3143,41.7649971 142.714659,41.6656816 142.111794,41.6752326 C141.527636,41.6701229 140.947754,41.7752149 140.402542,41.985 C139.886396,42.1833181 139.415919,42.4844235 139.019651,42.8700498 C138.623474,43.2612692 138.309409,43.7276643 138.09588,44.2418771 C137.866157,44.7956615 137.75136,45.3903511 137.758455,45.9898505 L137.758455,53.4021429 L136.18196,53.4021429 L136.18196,33.4885216 L137.758455,33.4885216 L137.802708,42.6709136 Z M158.197575,40.2093688 C159.027128,40.2024792 159.848849,40.3702158 160.609336,40.7016777 C161.336958,41.0191089 161.990615,41.4843917 162.528787,42.0679734 C163.084634,42.6809144 163.51833,43.394354 163.806578,44.1699668 C164.128458,45.0258743 164.293355,45.9328115 164.293355,46.8472425 C164.293355,46.9689369 164.293355,47.081412 164.293355,47.1846678 C164.293355,47.2879236 164.293355,47.3911794 164.293355,47.4944352 L153.351927,47.4944352 C153.392061,48.1929864 153.562801,48.8778219 153.855299,49.5134551 C154.122036,50.0809499 154.497965,50.5903336 154.961611,51.0125083 C155.413292,51.423204 155.941477,51.7408667 156.51598,51.9473422 C157.117424,52.1633162 157.752144,52.2719114 158.391179,52.2681728 C159.232687,52.2821942 160.067106,52.1122897 160.83613,51.7703322 C161.56103,51.4358603 162.221862,50.9772091 162.788771,50.4150997 L163.6351,51.521412 C163.25083,51.9118865 162.82621,52.2604827 162.368372,52.5613455 C161.956865,52.829705 161.517262,53.0522888 161.057392,53.2251329 C160.617686,53.3899887 160.161448,53.5068302 159.696628,53.5736213 C159.232872,53.6373229 158.765252,53.6687439 158.297143,53.6676578 C157.397564,53.6767452 156.50492,53.5094919 155.669651,53.1753488 C154.890654,52.8641263 154.184424,52.3951896 153.595316,51.79799 C152.9988,51.183891 152.535537,50.4532156 152.234551,49.6517442 C151.89323,48.7701458 151.724228,47.8312466 151.736711,46.8859635 C151.727239,45.96121 151.894331,45.0431445 152.22902,44.1810299 C152.535428,43.3884807 152.996069,42.6646163 153.584252,42.0513787 C154.164743,41.4539441 154.861223,40.9814667 155.63093,40.6629568 C156.443392,40.33129 157.314605,40.1675849 158.192043,40.181711 L158.197575,40.2093688 Z M158.197575,41.6088538 C157.574656,41.600515 156.956215,41.7151804 156.377691,41.9462791 C155.840912,42.1648565 155.350869,42.4840411 154.933953,42.8866445 C154.510855,43.2987379 154.166005,43.7841516 153.916146,44.3193189 C153.647514,44.8953814 153.477365,45.5124059 153.412774,46.1447342 L162.689203,46.1447342 C162.64202,45.5073105 162.486767,44.8825547 162.230083,44.2971927 C161.998003,43.7629605 161.667775,43.2770001 161.256528,42.8645183 C160.434925,42.0497217 159.32145,41.5975589 158.164385,41.6088538 L158.197575,41.6088538 Z M173.94593,40.2093688 C174.8678,40.2011528 175.781949,40.3779637 176.634269,40.7293355 C177.441354,41.062755 178.162038,41.5753671 178.741794,42.2283887 L177.718455,43.2904485 C177.226459,42.7939777 176.646986,42.39266 176.009203,42.1066944 C175.344225,41.8194318 174.625979,41.6761597 173.901678,41.6862957 C173.219823,41.6798295 172.543909,41.8135062 171.915847,42.0790365 C171.314152,42.3368295 170.770487,42.7130685 170.317226,43.1853488 C169.858176,43.6627234 169.498988,44.2268924 169.260698,44.8448173 C168.753117,46.196374 168.753117,47.6861841 169.260698,49.0377409 C169.72731,50.2858434 170.687821,51.2863762 171.915847,51.8035216 C172.543909,52.069052 173.219823,52.2027286 173.901678,52.1962625 C174.636951,52.2040599 175.365251,52.053117 176.03686,51.7537375 C176.674744,51.4669497 177.25709,51.0699807 177.757176,50.5810465 L178.741794,51.659701 C178.15569,52.3105226 177.431966,52.8226088 176.623206,53.1587542 C175.772996,53.5107036 174.860533,53.6875521 173.940399,53.6787209 C173.019321,53.6899969 172.105287,53.51697 171.25206,53.1698173 C169.654218,52.5203061 168.393959,51.2420433 167.767176,49.6351495 C167.111964,47.9180554 167.111964,46.0198184 167.767176,44.3027243 C168.391567,42.6930098 169.652377,41.412187 171.25206,40.7625249 C172.093346,40.3935927 172.99976,40.1961374 173.918272,40.181711 L173.94593,40.2093688 Z M184.04103,45.9068771 L186.154086,45.9068771 L191.630332,40.4195681 L193.621694,40.4195681 L187.426346,46.5596013 L193.732326,53.4298007 L191.7299,53.4298007 L186.154086,47.3450831 L184.04103,47.3450831 L184.04103,53.4298007 L182.436877,53.4298007 L182.436877,33.5161794 L184.013372,33.5161794 L184.04103,45.9068771 Z M99.1260299,27.1604153 L99.1260299,18.8630731 C99.1260299,15.7322093 97.1291362,13.6246844 93.915299,13.5970266 C92.0511532,13.4765031 90.2689506,14.3792597 89.2632558,15.9534718 C88.3466582,14.4256658 86.667859,13.5215337 84.8877907,13.5970266 C83.3396159,13.5222556 81.8671646,14.2711022 81.0156977,15.5662625 L81.0156977,13.906794 L78.1337542,13.906794 L78.1337542,27.1493522 L81.0433555,27.1493522 L81.0433555,19.8200332 C81.0433555,17.5189037 82.3156146,16.3019601 84.2848505,16.3019601 C86.2540864,16.3019601 87.166794,17.5465615 87.166794,19.7923754 L87.166794,27.1604153 L90.0763953,27.1604153 L90.0763953,19.8200332 C90.0763953,17.5189037 91.4039701,16.3019601 93.3178904,16.3019601 C95.2318106,16.3019601 96.2274917,17.5465615 96.2274917,19.7923754 L96.2274917,27.1604153 L99.1260299,27.1604153 Z M142.178173,13.9178571 L137.470814,13.9178571 L137.470814,9.90194352 L134.58887,9.90194352 L134.58887,13.9178571 L131.900532,13.9178571 L131.900532,16.5508804 L134.58887,16.5508804 L134.58887,22.5913455 C134.58887,25.6668937 135.778156,27.4978405 139.185598,27.4978405 C140.458269,27.501952 141.706331,27.14728 142.786645,26.4745017 L141.95691,24.0074252 C141.183717,24.4679766 140.306348,24.7249066 139.40686,24.754186 C137.968654,24.754186 137.49294,23.8691362 137.49294,22.5415615 L137.49294,16.5508804 L142.200299,16.5508804 L142.178173,13.9178571 Z M166.7549,13.5859635 C165.323444,13.5442371 163.983966,14.2893351 163.264485,15.5275415 L163.264485,13.9178571 L160.410199,13.9178571 L160.410199,27.1604153 L163.292143,27.1604153 L163.292143,19.7370598 C163.292143,17.5244352 164.232508,16.3296179 166.118771,16.3296179 C166.735835,16.3206916 167.348609,16.433472 167.92206,16.6615116 L168.80711,13.945515 C168.148434,13.709946 167.454429,13.5883548 166.7549,13.5859635 Z M129.610465,14.9743854 C127.978786,14.0049976 126.102881,13.5249807 124.20613,13.591495 C120.854003,13.591495 118.674568,15.1956478 118.674568,17.8286711 C118.674568,19.9915116 120.278721,21.3190864 123.243638,21.7339535 L124.59887,21.9275581 C126.175365,22.1488206 126.927658,22.5636877 126.927658,23.3104485 C126.927658,24.3337874 125.876661,24.9146013 123.907425,24.9146013 C122.318709,24.9650692 120.759466,24.4778059 119.482176,23.531711 L118.126944,25.7775249 C119.805211,26.950959 121.816133,27.5540417 123.863173,27.4978405 C127.685482,27.4978405 129.903638,25.6945515 129.903638,23.177691 C129.903638,20.8489037 128.155664,19.6319601 125.279252,19.217093 L123.92402,19.0234884 C122.679419,18.8575415 121.678206,18.6086213 121.678206,17.7235714 C121.678206,16.7555482 122.618571,16.1692027 124.200598,16.1692027 C125.650092,16.1906248 127.070247,16.5808817 128.327143,17.3031728 L129.610465,14.9743854 Z M206.797874,13.591495 C205.366418,13.5497687 204.026939,14.2948667 203.307458,15.5330731 L203.307458,13.9178571 L200.453173,13.9178571 L200.453173,27.1604153 L203.335116,27.1604153 L203.335116,19.7370598 C203.335116,17.5244352 204.275482,16.3296179 206.161744,16.3296179 C206.778809,16.3206916 207.391582,16.433472 207.965033,16.6615116 L208.850083,13.945515 C208.191408,13.709946 207.497402,13.5883548 206.797874,13.5859635 L206.797874,13.591495 Z M169.670033,20.5446678 C169.670033,24.5605814 172.469003,27.4978405 176.733837,27.4978405 C178.463204,27.583401 180.162044,27.0190938 181.496512,25.915814 L180.113621,23.5870266 C179.109264,24.3442866 177.886577,24.7557304 176.628738,24.7597176 C174.327608,24.7597176 172.640482,23.0670598 172.640482,20.5225415 C172.640482,17.9780233 174.33314,16.3130233 176.628738,16.2853654 C177.880885,16.2988969 179.095267,16.715977 180.091495,17.4746512 L181.474385,15.1458638 C180.139918,14.0425839 178.441077,13.4782767 176.711711,13.5638372 C172.446877,13.5638372 169.647907,16.5010963 169.647907,20.51701 L169.670033,20.5446678 Z M196.65299,20.5446678 L196.65299,13.906794 L193.776578,13.906794 L193.776578,15.5164784 C192.779564,14.2299249 191.220924,13.5062706 189.594718,13.5749003 C185.88304,13.5749003 182.956844,16.4845017 182.956844,20.5280731 C182.956844,24.5716445 185.866445,27.4812458 189.594718,27.4812458 C191.220924,27.5498755 192.779564,26.8262213 193.776578,25.5396678 L193.776578,27.1438206 L196.658522,27.1438206 L196.65299,20.5446678 Z M185.932824,20.5446678 C185.932824,18.2158804 187.454003,16.3074917 189.948738,16.3074917 C192.332841,16.3074917 193.936993,18.1384385 193.936993,20.5446678 C193.936993,22.950897 192.332841,24.7818439 189.948738,24.7818439 C187.454003,24.7818439 185.932824,22.8679236 185.932824,20.5446678 Z M151.183555,13.5859635 C147.311462,13.5859635 144.589934,16.4125914 144.589934,20.5391362 C144.589934,24.7486545 147.416561,27.492309 151.377159,27.492309 C153.354737,27.5615963 155.288533,26.899931 156.809153,25.6337043 L155.398605,23.4985216 C154.298444,24.3787602 152.935384,24.8655672 151.526512,24.881412 C149.667907,24.881412 147.980781,24.0240199 147.565914,21.6399169 L157.40103,21.6399169 C157.428688,21.2803654 157.456346,20.920814 157.456346,20.5336047 C157.456346,16.4070598 154.878638,13.5804319 151.16696,13.5804319 L151.183555,13.5859635 Z M151.128239,16.1636711 C152.986844,16.1636711 154.17613,17.325299 154.480365,19.3775083 L147.582508,19.3775083 C147.886744,17.463588 149.048372,16.1636711 151.100581,16.1636711 L151.128239,16.1636711 Z M223.414684,20.5391362 L223.414684,8.60202658 L220.532741,8.60202658 L220.532741,15.5275415 C219.535727,14.240988 217.977087,13.5173338 216.35088,13.5859635 C212.639203,13.5859635 209.713007,16.4955648 209.713007,20.5391362 C209.713007,24.5827076 212.622608,27.492309 216.35088,27.492309 C217.977087,27.5609387 219.535727,26.8372844 220.532741,25.5507309 L220.532741,27.1548837 L223.414684,27.1548837 L223.414684,20.5391362 Z M226.783405,25.9379402 C226.897378,25.9374931 227.010266,25.9600707 227.115299,26.0043189 C227.216385,26.0474665 227.308362,26.10941 227.386346,26.1868605 C227.463634,26.2628592 227.525604,26.3529975 227.568887,26.4523754 C227.658712,26.6606792 227.658712,26.8967959 227.568887,27.1050997 C227.525485,27.2044111 227.463529,27.2945278 227.386346,27.3706146 C227.30811,27.4477585 227.216195,27.5096606 227.115299,27.5531561 C227.010404,27.5978515 226.897422,27.6204478 226.783405,27.6195349 C226.438599,27.6238395 226.124767,27.4211563 225.98686,27.1050997 C225.897687,26.8966619 225.897687,26.6608132 225.98686,26.4523754 C226.073371,26.2492665 226.236293,26.0883308 226.440449,26.0043189 C226.540488,25.9627189 226.647427,25.9402052 226.755748,25.9379402 L226.783405,25.9379402 Z M226.783405,27.4314618 C226.87077,27.4328339 226.957452,27.4158744 227.037857,27.3816777 C227.114068,27.3486782 227.183473,27.3017834 227.242525,27.2433887 C227.498517,26.9865093 227.498517,26.5709658 227.242525,26.3140864 C227.183726,26.2553839 227.114259,26.2084473 227.037857,26.1757973 C226.957357,26.1419103 226.870741,26.1249636 226.783405,26.1260133 C226.694267,26.1248323 226.605818,26.1417694 226.523422,26.1757973 C226.323142,26.2613118 226.178119,26.4403459 226.136049,26.6540159 C226.093979,26.8676858 226.160309,27.0883335 226.313223,27.2433887 C226.373745,27.3025718 226.445115,27.3495258 226.523422,27.3816777 C226.596803,27.4142472 226.675563,27.4329996 226.755748,27.4369934 L226.783405,27.4314618 Z M226.833189,26.3804651 C226.916019,26.3746615 226.998254,26.3981571 227.065515,26.4468439 C227.120738,26.4909478 227.151571,26.5587788 227.148488,26.6293854 C227.150509,26.6899235 227.126315,26.7483905 227.08211,26.7898007 C227.031391,26.8349182 226.967257,26.8621268 226.899568,26.8672425 L227.15402,27.1604153 L226.954884,27.1604153 L226.717027,26.8672425 L226.639585,26.8672425 L226.639585,27.1604153 L226.473638,27.1604153 L226.473638,26.3804651 L226.833189,26.3804651 Z M226.639585,26.5242857 L226.639585,26.734485 L226.833189,26.734485 C226.867511,26.7444726 226.903968,26.7444726 226.938289,26.734485 C226.963804,26.7171774 226.978473,26.6878394 226.97701,26.6570432 C226.978473,26.626247 226.963804,26.596909 226.938289,26.5796013 C226.903968,26.5696137 226.867511,26.5696137 226.833189,26.5796013 L226.639585,26.5242857 Z M212.694518,20.5336047 C212.694518,18.2048173 214.215698,16.2964286 216.710432,16.2964286 C219.094535,16.2964286 220.698688,18.1273754 220.698688,20.5336047 C220.698688,22.9398339 219.094535,24.7707807 216.710432,24.7707807 C214.215698,24.7707807 212.694518,22.8568605 212.694518,20.5336047 Z M115.394352,20.5336047 L115.394352,13.8957309 L112.462625,13.8957309 L112.462625,15.5054153 C111.46561,14.2188618 109.906971,13.4952075 108.280764,13.5638372 C104.569086,13.5638372 101.64289,16.4734385 101.64289,20.51701 C101.64289,24.5605814 104.552492,27.4701827 108.280764,27.4701827 C109.906971,27.5388124 111.46561,26.8151582 112.462625,25.5286047 L112.462625,27.1327575 L115.344568,27.1327575 L115.394352,20.5336047 Z M104.674186,20.5336047 C104.674186,18.2048173 106.195365,16.2964286 108.6901,16.2964286 C111.074203,16.2964286 112.678355,18.1273754 112.678355,20.5336047 C112.678355,22.9398339 111.074203,24.7707807 108.6901,24.7707807 C106.162176,24.7597176 104.640997,22.8679236 104.640997,20.5391362 L104.674186,20.5336047 Z M195.734751,52.7494186 L195.485831,52.7494186 L195.485831,53.4021429 L195.364136,53.4021429 L195.364136,52.7494186 L195.115216,52.7494186 L195.115216,52.6332558 L195.734751,52.6332558 L195.734751,52.7494186 Z M196.686179,53.4021429 L196.542359,53.4021429 L196.542359,52.7715449 L196.315565,53.324701 L196.182807,53.324701 L195.956013,52.7715449 L195.956013,53.3966113 L195.834319,53.3966113 L195.834319,52.6277243 L196.022392,52.6277243 L196.243654,53.1808804 L196.464917,52.6277243 L196.65299,52.6277243 L196.686179,53.4021429 Z" id="Shape" fill="#000000" fill-rule="nonzero"></path>
            <g id="_Group_" transform="translate(0.448505, 0.448505)">
                <rect id="Rectangle" fill="#FF5F00" x="23.48701" y="4.34780731" width="17.4244186" height="31.3141694"></rect>
                <path d="M24.6154485,20.0076578 C24.6106346,13.898049 27.4153085,8.12552011 32.2213455,4.35333887 C24.0566448,-2.06324378 12.3318072,-1.12861303 5.28673338,6.50039775 C-1.75834041,14.1294085 -1.75834041,25.8914386 5.28673338,33.5204494 C12.3318072,41.1494602 24.0566448,42.084091 32.2213455,35.6675083 C27.413779,31.8941292 24.6089338,26.1192078 24.6154485,20.0076578 Z" id="_Path_" fill="#EB001B"></path>
                <path d="M62.5177076,32.3430399 L62.5177076,31.7013787 L62.7832226,31.7013787 L62.7832226,31.5686213 L62.1194352,31.5686213 L62.1194352,31.7013787 L62.3794186,31.7013787 L62.3794186,32.3430399 L62.5177076,32.3430399 Z M63.7954983,32.3430399 L63.7954983,31.5686213 L63.5963621,31.5686213 L63.3640365,32.1217774 L63.131711,31.5686213 L62.9270432,31.5686213 L62.9270432,32.3430399 L63.0708638,32.3430399 L63.0708638,31.7622259 L63.2865947,32.265598 L63.4359468,32.265598 L63.6516777,31.7622259 L63.6516777,32.3485714 L63.7954983,32.3430399 Z" id="Shape" fill="#F79E1B" fill-rule="nonzero"></path>
                <path d="M64.442691,20.0076578 C64.4425133,27.6320194 60.0890318,34.5870009 53.2311869,37.9187951 C46.373342,41.2505893 38.2151186,40.3742558 32.2213455,35.6619767 C37.0252855,31.886593 39.8301706,26.1148316 39.8301706,20.004892 C39.8301706,13.8949524 37.0252855,8.12319103 32.2213455,4.34780731 C38.2159031,-0.365088906 46.3753951,-1.24098574 53.233675,2.09219716 C60.091955,5.42538007 64.4446316,12.3822983 64.442691,20.0076578 Z" id="Path" fill="#F79E1B"></path>
            </g>
        </g>
    </g>
</svg>