<svg width="24" height="24" viewBox="0 0 24 24" fill="none" xmlns="http://www.w3.org/2000/svg">
<path d="M-7.07805e-07 12.0417C-7.07805e-07 9.69301 0.696455 7.3971 2.0013 5.44426C3.30614 3.49143 5.16076 1.96938 7.33063 1.07059C9.5005 0.171802 11.8882 -0.0633628 14.1917 0.394837C16.4952 0.853036 18.6111 1.98402 20.2719 3.64477C21.9326 5.30552 23.0636 7.42144 23.5218 9.72496C23.98 12.0285 23.7449 14.4162 22.8461 16.586C21.9473 18.7559 20.4252 20.6105 18.4724 21.9154C16.5196 23.2202 14.2236 23.9167 11.875 23.9167C8.72555 23.9167 5.7051 22.6655 3.47811 20.4386C1.25111 18.2116 -7.07805e-07 15.1911 -7.07805e-07 12.0417ZM12.6662 10.3826C12.6662 10.1727 12.5829 9.9715 12.4345 9.82311C12.2861 9.67473 12.0848 9.59137 11.875 9.59137C11.6652 9.59137 11.4639 9.67473 11.3155 9.82311C11.1671 9.9715 11.0838 10.1727 11.0838 10.3826V17.1288C11.0838 17.3386 11.1671 17.5399 11.3155 17.6883C11.4639 17.8367 11.6652 17.92 11.875 17.92C12.0848 17.92 12.2861 17.8367 12.4345 17.6883C12.5829 17.5399 12.6662 17.3386 12.6662 17.1288V10.3826ZM10.7032 6.6805C10.7032 6.91227 10.7719 7.13884 10.9006 7.33154C11.0294 7.52425 11.2124 7.67445 11.4266 7.76314C11.6407 7.85184 11.8763 7.87504 12.1036 7.82983C12.3309 7.78461 12.5397 7.67301 12.7036 7.50912C12.8675 7.34524 12.9791 7.13643 13.0243 6.90912C13.0695 6.6818 13.0463 6.44619 12.9576 6.23206C12.8689 6.01793 12.7187 5.83492 12.526 5.70615C12.3333 5.57739 12.1068 5.50866 11.875 5.50866C11.5642 5.50866 11.2661 5.63212 11.0464 5.85189C10.8266 6.07165 10.7032 6.36971 10.7032 6.6805V6.6805Z" fill="#333333"/>
</svg>
