<svg width="218" height="58" viewBox="0 0 218 58" fill="none" xmlns="http://www.w3.org/2000/svg">
<path fill-rule="evenodd" clip-rule="evenodd" d="M14.9507 33.6972C12.4331 32.2447 10.419 31.5669 8.25001 31.5669C3.73768 31.5669 0.15493 34.5881 0.15493 38.4419C0.15493 46.4789 13.169 44.6972 13.169 50.662C13.169 53.2377 10.9419 55.0194 7.86268 55.0194C5.46127 55.0194 3.29226 54.3997 0 52.7342V55.3486C2.57571 56.9173 4.97712 57.6338 7.53346 57.6338C12.162 57.6338 15.7447 54.6127 15.7447 50.7201C15.7447 42.0053 2.73064 44.3099 2.73064 38.2676C2.73064 35.8662 5.07395 34.0264 8.09508 34.0264C10.3222 34.0264 12.162 34.743 14.9701 36.6021V33.6972" fill="black"/>
<path fill-rule="evenodd" clip-rule="evenodd" d="M56.9754 32.0898H54.2835L45.5881 52.5018L37.9384 32.0898H36.486L28.6233 52.5018L20.0828 32.0898H17.449L28.1779 57.6338H29.3979L37.1638 37.28L44.8522 57.6338H46.1497L56.9754 32.0898Z" fill="black"/>
<path fill-rule="evenodd" clip-rule="evenodd" d="M63.5599 19.0757H60.868V23.6462H63.5599V19.0757ZM63.5599 32.0705H60.868V57.1303H63.5599V32.0705Z" fill="black"/>
<path fill-rule="evenodd" clip-rule="evenodd" d="M84.7078 33.6972C82.1902 32.2447 80.1954 31.5669 78.0071 31.5669C73.4947 31.5669 69.912 34.5881 69.912 38.4419C69.912 46.4789 82.9067 44.6972 82.9067 50.662C82.9067 53.2377 80.6796 55.0194 77.6004 55.0194C75.199 55.0194 73.03 54.3997 69.7377 52.7342V55.3486C72.3134 56.9173 74.6954 57.6338 77.2712 57.6338C81.8997 57.6338 85.4824 54.6127 85.4824 50.7201C85.4824 42.0053 72.4683 44.3099 72.4683 38.2676C72.4683 35.8662 74.8116 34.0264 77.8328 34.0264C80.0599 34.0264 81.8997 34.743 84.6884 36.6021V33.6972" fill="black"/>
<path fill-rule="evenodd" clip-rule="evenodd" d="M104.442 33.6972C101.924 32.2447 99.9102 31.5669 97.7412 31.5669C93.2289 31.5669 89.6462 34.5881 89.6462 38.4419C89.6462 46.4789 102.641 44.6972 102.641 50.662C102.641 53.2377 100.414 55.0194 97.3345 55.0194C94.9331 55.0194 92.7641 54.3997 89.4719 52.7342V55.3486C92.0476 56.9173 94.4296 57.6339 97.0053 57.6339C101.634 57.6339 105.217 54.6127 105.217 50.7201C105.217 42.0053 92.2025 44.3099 92.2025 38.2676C92.2025 35.8662 94.5458 34.0264 97.5669 34.0264C99.7941 34.0264 101.634 34.743 104.442 36.6021V33.6972Z" fill="black"/>
<path fill-rule="evenodd" clip-rule="evenodd" d="M132.794 50.1004C129.211 51.4367 127.488 51.8821 125.532 51.8821C120.903 51.8821 117.824 48.861 117.824 44.2905C117.824 39.7588 120.942 36.8733 125.803 36.8733C127.817 36.8733 130.276 37.493 132.387 38.5969V32.574C129.715 31.5669 126.365 30.9085 123.731 30.9085C115.248 30.9085 109.167 36.4859 109.167 44.368C109.167 52.405 115.035 57.6532 124.079 57.6532C126.81 57.6532 129.541 57.0916 132.794 55.9296V50.1004Z" fill="black"/>
<path fill-rule="evenodd" clip-rule="evenodd" d="M152.005 50.8944C150.669 52.1145 149.042 52.8504 147.532 52.8504C146.079 52.8504 144.898 51.6303 144.898 50.1198C144.898 47.5441 147.183 46.4402 151.986 44.6972V50.8944H152.005ZM164.497 50.7782C162.599 52.1145 161.979 52.2307 161.417 52.2307C160.585 52.2307 160.081 51.7272 160.081 50.449V38.7324C160.081 33.0969 155.666 30.9278 149.197 30.9278C145.13 30.9278 141.373 31.993 138.042 34.0458V40.6303C140.618 38.0159 144.298 36.331 147.532 36.331C151.037 36.331 152.16 38.2289 152.005 40.6303C141.238 43.9807 136.706 45.2007 136.706 51.3398C136.706 54.574 139.766 57.6532 143.91 57.6532C146.699 57.6532 149.275 56.8786 152.393 54.7483C152.954 56.8205 154.232 57.6532 156.905 57.6532C159.074 57.6532 162.269 56.6462 164.497 55.3099V50.7782Z" fill="black"/>
<path fill-rule="evenodd" clip-rule="evenodd" d="M176.155 31.412H168.06V57.1303H176.155V46.0335C177.937 41.2888 179.835 38.5 182.798 38.5C184.076 38.5 185.47 39.0616 187.601 40.3979L189.828 33.2518C187.484 31.5282 186.09 30.9085 184.463 30.9085C181.345 30.9085 178.653 33.4261 176.252 38.7712H176.136V31.412" fill="black"/>
<path fill-rule="evenodd" clip-rule="evenodd" d="M209.814 50.1004C208.148 51.611 206.734 52.2307 205.011 52.2307C201.215 52.2307 198.814 49.1127 198.814 44.4261C198.814 39.2941 201.215 36.331 205.282 36.331C206.734 36.331 208.632 37.0088 209.814 37.8416V50.1004ZM217.909 19.0757H209.814V32.5352C207.645 31.4701 205.456 30.9085 203.113 30.9085C195.754 30.9085 190.602 36.3891 190.602 44.2518C190.602 51.9596 195.734 57.6532 202.667 57.6532C205.398 57.6532 207.528 56.9367 209.814 55.0775V57.1497H217.909V19.0757Z" fill="black"/>
<path fill-rule="evenodd" clip-rule="evenodd" d="M179.273 8.90845H172.921L176.078 1.93662L179.273 8.90845ZM176.407 0.0774615H175.787L168.951 14.9894H170.152L172.495 9.87676H179.718L182.042 14.9894H183.243L176.407 0.0774615Z" fill="black"/>
<path fill-rule="evenodd" clip-rule="evenodd" d="M193.139 0.193661H185.064V14.9894H193.314V14.0405H186.225V8.01761H192.965V7.06867H186.225V1.14261H193.139V0.193661Z" fill="black"/>
<path fill-rule="evenodd" clip-rule="evenodd" d="M208.012 1.23944C206.211 0.40669 204.449 0 202.803 0C198.755 0 195.037 3.07923 195.037 7.61092C195.037 11.949 198.407 15.1831 202.919 15.1831C204.643 15.1831 206.463 14.699 208.167 13.7887V12.6074C206.153 13.6725 204.565 14.118 202.9 14.118C199.046 14.118 196.277 11.4261 196.277 7.61092C196.277 3.85388 199.046 1.06514 202.745 1.06514C204.507 1.06514 206.173 1.52993 208.012 2.49824V1.23944Z" fill="black"/>
<path fill-rule="evenodd" clip-rule="evenodd" d="M217.347 0.929578C216.185 0.309859 215.062 0 213.919 0C211.576 0 209.659 1.74296 209.659 3.93134C209.659 8.81163 216.708 6.97184 216.708 11.1743C216.708 12.8398 215.333 14.118 213.59 14.118C212.447 14.118 211.518 13.7306 209.852 12.5299V13.8856C211.15 14.7571 212.447 15.1831 213.648 15.1831C216.049 15.1831 217.947 13.4014 217.947 11.1162C217.947 5.92606 210.898 7.82395 210.898 3.87324C210.898 2.26585 212.234 1.04578 214.016 1.04578C215.042 1.04578 215.817 1.3169 217.328 2.16902V0.929578" fill="black"/>
</svg>
